<?xml version="1.0" encoding="iso-8859-1"?>
<!-- Generator: Adobe Illustrator 19.0.0, SVG Export Plug-In . SVG Version: 6.00 Build 0)  -->
<svg version="1.1" id="Capa_1" xmlns="http://www.w3.org/2000/svg" xmlns:xlink="http://www.w3.org/1999/xlink" x="0px" y="0px"
	 viewBox="0 0 512 512" style="enable-background:new 0 0 512 512;" xml:space="preserve">
<path style="fill:#B2D95F;" d="M401.92,61.44v266.24c0,36.291-21.258,67.85-51.927,82.852l-3.779,40.294
	C343.061,484.475,312.832,512,279.04,512h-30.72c33.792,0,64.02-27.525,67.174-61.174L309.76,0h30.72
	C374.354,0,401.92,27.566,401.92,61.44z"/>
<path style="fill:#DBEB63;" d="M371.2,61.44l-55.706,389.386C312.341,484.475,282.112,512,248.32,512h-15.36
	c-33.792,0-64.02-27.525-67.174-61.174l-3.779-40.294c-30.679-15.002-51.927-46.561-51.927-82.852V61.44
	C110.08,27.566,137.636,0,171.52,0h138.24C343.634,0,371.2,27.566,371.2,61.44z"/>
<path style="fill:#202833;" d="M371.2,61.44c0-16.937-13.783-30.72-30.72-30.72h-30.72l-30.72,358.4h30.72
	c33.874,0,61.44-27.566,61.44-61.44v-61.44l-19.108-102.4L371.2,61.44z"/>
<path style="fill:#414851;" d="M309.76,30.72H171.52c-16.937,0-30.72,13.783-30.72,30.72l30.72,102.4l-30.72,102.4v61.44
	c0,33.874,27.556,61.44,61.44,61.44h76.8c33.874,0,61.44-27.566,61.44-61.44V61.44C340.48,44.503,326.697,30.72,309.76,30.72z"/>
<path style="fill:#A4A6AA;" d="M325.12,296.96h-40.96L256,307.2l-28.16-10.24h-40.96c-8.489,0-15.36,6.881-15.36,15.36
	c0,8.479,6.871,15.36,15.36,15.36h40.96L256,317.44l28.16,10.24h40.96c8.479,0,15.36-6.881,15.36-15.36
	C340.48,303.841,333.599,296.96,325.12,296.96z"/>
<rect x="227.84" y="296.96" style="fill:#83878C;" width="56.32" height="30.72"/>
<polygon style="fill:#55C7C2;" points="371.2,61.44 371.2,266.24 340.48,266.24 289.28,163.84 340.48,61.44 "/>
<rect x="140.8" y="61.44" style="fill:#56EBE0;" width="199.68" height="204.8"/>
<g>
	<path style="fill:#439292;" d="M325.117,243.2c-12.705,0-23.04-10.335-23.04-23.04v-25.6c0-12.705,10.335-23.04,23.04-23.04
		c12.705,0,23.04,10.335,23.04,23.04v25.6C348.157,232.865,337.822,243.2,325.117,243.2z M325.117,186.88
		c-4.235,0-7.68,3.445-7.68,7.68v25.6c0,4.235,3.445,7.68,7.68,7.68c4.235,0,7.68-3.445,7.68-7.68v-25.6
		C332.797,190.325,329.352,186.88,325.117,186.88z"/>
	<path style="fill:#439292;" d="M248.317,243.2c-12.705,0-23.04-10.335-23.04-23.04v-25.6c0-12.705,10.335-23.04,23.04-23.04
		c12.705,0,23.04,10.335,23.04,23.04v25.6C271.357,232.865,261.022,243.2,248.317,243.2z M248.317,186.88
		c-4.235,0-7.68,3.445-7.68,7.68v25.6c0,4.235,3.445,7.68,7.68,7.68c4.235,0,7.68-3.445,7.68-7.68v-25.6
		C255.997,190.325,252.552,186.88,248.317,186.88z"/>
	<path style="fill:#439292;" d="M325.117,156.16c-12.705,0-23.04-10.335-23.04-23.04v-25.6c0-12.705,10.335-23.04,23.04-23.04
		c12.705,0,23.04,10.335,23.04,23.04v25.6C348.157,145.825,337.822,156.16,325.117,156.16z M325.117,99.84
		c-4.235,0-7.68,3.445-7.68,7.68v25.6c0,4.235,3.445,7.68,7.68,7.68c4.235,0,7.68-3.445,7.68-7.68v-25.6
		C332.797,103.285,329.352,99.84,325.117,99.84z"/>
	<path style="fill:#439292;" d="M248.317,156.16c-12.705,0-23.04-10.335-23.04-23.04v-25.6c0-12.705,10.335-23.04,23.04-23.04
		c12.705,0,23.04,10.335,23.04,23.04v25.6C271.357,145.825,261.022,156.16,248.317,156.16z M248.317,99.84
		c-4.235,0-7.68,3.445-7.68,7.68v25.6c0,4.235,3.445,7.68,7.68,7.68c4.235,0,7.68-3.445,7.68-7.68v-25.6
		C255.997,103.285,252.552,99.84,248.317,99.84z"/>
	<path style="fill:#439292;" d="M186.877,243.2c-12.705,0-23.04-10.335-23.04-23.04v-25.6c0-12.705,10.335-23.04,23.04-23.04
		c12.705,0,23.04,10.335,23.04,23.04v25.6C209.917,232.865,199.582,243.2,186.877,243.2z M186.877,186.88
		c-4.235,0-7.68,3.445-7.68,7.68v25.6c0,4.235,3.445,7.68,7.68,7.68c4.235,0,7.68-3.445,7.68-7.68v-25.6
		C194.557,190.325,191.112,186.88,186.877,186.88z"/>
	<path style="fill:#439292;" d="M186.877,156.16c-12.705,0-23.04-10.335-23.04-23.04v-25.6c0-12.705,10.335-23.04,23.04-23.04
		c12.705,0,23.04,10.335,23.04,23.04v25.6C209.917,145.825,199.582,156.16,186.877,156.16z M186.877,99.84
		c-4.235,0-7.68,3.445-7.68,7.68v25.6c0,4.235,3.445,7.68,7.68,7.68c4.235,0,7.68-3.445,7.68-7.68v-25.6
		C194.557,103.285,191.112,99.84,186.877,99.84z"/>
	<circle style="fill:#439292;" cx="286.72" cy="235.52" r="7.68"/>
	<circle style="fill:#439292;" cx="286.72" cy="148.48" r="7.68"/>
</g>
<g>
</g>
<g>
</g>
<g>
</g>
<g>
</g>
<g>
</g>
<g>
</g>
<g>
</g>
<g>
</g>
<g>
</g>
<g>
</g>
<g>
</g>
<g>
</g>
<g>
</g>
<g>
</g>
<g>
</g>
</svg>
